<svg width="22" height="22" viewBox="0 0 22 22" fill="none" xmlns="http://www.w3.org/2000/svg">
<g clip-path="url(#clip0_368_880)">
<path d="M11 12.8334V14.6667C9.54127 14.6667 8.14232 15.2462 7.11087 16.2776C6.07942 17.309 5.49996 18.708 5.49996 20.1667H3.66663C3.66663 18.2218 4.43924 16.3565 5.81451 14.9812C7.18978 13.606 9.05504 12.8334 11 12.8334ZM11 11.9167C7.96121 11.9167 5.49996 9.45544 5.49996 6.41669C5.49996 3.37794 7.96121 0.916687 11 0.916687C14.0387 0.916687 16.5 3.37794 16.5 6.41669C16.5 9.45544 14.0387 11.9167 11 11.9167ZM11 10.0834C13.0258 10.0834 14.6666 8.44252 14.6666 6.41669C14.6666 4.39085 13.0258 2.75002 11 2.75002C8.97413 2.75002 7.33329 4.39085 7.33329 6.41669C7.33329 8.44252 8.97413 10.0834 11 10.0834ZM19.25 15.5834H20.1666V20.1667H12.8333V15.5834H13.75V14.6667C13.75 13.9373 14.0397 13.2379 14.5554 12.7221C15.0711 12.2064 15.7706 11.9167 16.5 11.9167C17.2293 11.9167 17.9288 12.2064 18.4445 12.7221C18.9602 13.2379 19.25 13.9373 19.25 14.6667V15.5834ZM17.4166 15.5834V14.6667C17.4166 14.4236 17.3201 14.1904 17.1481 14.0185C16.9762 13.8466 16.7431 13.75 16.5 13.75C16.2568 13.75 16.0237 13.8466 15.8518 14.0185C15.6799 14.1904 15.5833 14.4236 15.5833 14.6667V15.5834H17.4166Z" fill="currentColor"/>
</g>
<defs>
<clipPath id="clip0_368_880">
<rect width="22" height="22" fill="white"/>
</clipPath>
</defs>
</svg>
