<svg width="18" height="21" viewBox="0 0 18 21" fill="currentCollor" xmlns="http://www.w3.org/2000/svg">
    <path
        d="M14 14.3706C15.657 14.3706 17 15.7157 17 17.3753C17 19.0348 15.657 20.3799 14 20.3799C12.343 20.3799 11 19.0348 11 17.3753C11 15.7157 12.343 14.3706 14 14.3706ZM4 10.3644C6.21 10.3644 8 12.1572 8 14.3706C8 16.584 6.21 18.3768 4 18.3768C1.79 18.3768 0 16.584 0 14.3706C0 12.1572 1.79 10.3644 4 10.3644ZM14 16.3737C13.448 16.3737 13 16.8224 13 17.3753C13 17.9281 13.448 18.3768 14 18.3768C14.552 18.3768 15 17.9281 15 17.3753C15 16.8224 14.552 16.3737 14 16.3737ZM4 12.3675C2.895 12.3675 2 13.2639 2 14.3706C2 15.4773 2.895 16.3737 4 16.3737C5.105 16.3737 6 15.4773 6 14.3706C6 13.2639 5.105 12.3675 4 12.3675ZM12.5 0.348999C15.538 0.348999 18 2.8148 18 5.85749C18 8.90018 15.538 11.366 12.5 11.366C9.462 11.366 7 8.90018 7 5.85749C7 2.8148 9.462 0.348999 12.5 0.348999ZM12.5 2.35209C10.567 2.35209 9 3.92151 9 5.85749C9 7.79348 10.567 9.3629 12.5 9.3629C14.433 9.3629 16 7.79348 16 5.85749C16 3.92151 14.433 2.35209 12.5 2.35209Z"
        fill="currentColor" />
</svg>
    