<svg width="20" height="21" viewBox="0 0 20 21" fill="none" xmlns="http://www.w3.org/2000/svg">
    <path d="M10 20.0316C4.477 20.0316 0 15.6752 0 10.3009C0 4.92663 4.477 0.57019 10 0.57019C15.523 0.57019 20 4.92663 20 10.3009C20 15.6752 15.523 20.0316 10 20.0316ZM10 18.0855C12.1217 18.0855 14.1566 17.2653 15.6569 15.8054C17.1571 14.3455 18 12.3655 18 10.3009C18 8.23631 17.1571 6.25627 15.6569 4.79638C14.1566 3.33649 12.1217 2.51633 10 2.51633C7.87827 2.51633 5.84344 3.33649 4.34315 4.79638C2.84285 6.25627 2 8.23631 2 10.3009C2 12.3655 2.84285 14.3455 4.34315 15.8054C5.84344 17.2653 7.87827 18.0855 10 18.0855ZM11 10.3009H15V12.247H9V5.43555H11V10.3009Z" fill="currentColor"/>
    </svg>
    