<svg width="22" height="22" viewBox="0 0 22 22" fill="none" xmlns="http://www.w3.org/2000/svg">
<g clip-path="url(#clip0_368_875)">
<path d="M11.9717 7.43415L13.2687 8.73124C13.8647 9.32709 14.3374 10.0345 14.6599 10.813C14.9824 11.5916 15.1484 12.426 15.1484 13.2687C15.1484 14.1114 14.9824 14.9459 14.6599 15.7244C14.3374 16.503 13.8647 17.2104 13.2687 17.8062L12.9442 18.1298C11.7408 19.3332 10.1086 20.0093 8.40674 20.0093C6.70485 20.0093 5.07266 19.3332 3.86924 18.1298C2.66582 16.9264 1.98975 15.2942 1.98975 13.5923C1.98975 11.8904 2.66582 10.2582 3.86924 9.05482L5.16632 10.3519C4.73766 10.7768 4.39715 11.2822 4.16434 11.8391C3.93153 12.396 3.811 12.9934 3.80968 13.5969C3.80836 14.2005 3.92627 14.7984 4.15664 15.3563C4.38701 15.9142 4.7253 16.4211 5.1521 16.8479C5.5789 17.2747 6.08579 17.613 6.64368 17.8433C7.20157 18.0737 7.79946 18.1916 8.40304 18.1903C9.00662 18.189 9.604 18.0684 10.1609 17.8356C10.7177 17.6028 11.2232 17.2623 11.6481 16.8337L11.9726 16.5092C12.8318 15.6497 13.3145 14.4841 13.3145 13.2687C13.3145 12.0534 12.8318 10.8878 11.9726 10.0283L10.6755 8.73124L11.9726 7.43507L11.9717 7.43415ZM18.1298 12.9442L16.8337 11.6481C17.2623 11.2231 17.6028 10.7177 17.8356 10.1609C18.0685 9.60399 18.189 9.00662 18.1903 8.40304C18.1916 7.79946 18.0737 7.20156 17.8433 6.64367C17.613 6.08579 17.2747 5.57889 16.8479 5.1521C16.4211 4.7253 15.9142 4.38701 15.3563 4.15664C14.7984 3.92627 14.2005 3.80836 13.5969 3.80968C12.9934 3.811 12.396 3.93153 11.8391 4.16434C11.2822 4.39715 10.7768 4.73766 10.3519 5.16632L10.0274 5.49082C9.16816 6.35032 8.68547 7.5159 8.68547 8.73124C8.68547 9.94657 9.16816 11.1122 10.0274 11.9717L11.3245 13.2687L10.0274 14.5649L8.73124 13.2687C8.13533 12.6729 7.66262 11.9655 7.34011 11.1869C7.0176 10.4084 6.85161 9.57394 6.85161 8.73124C6.85161 7.88853 7.0176 7.05408 7.34011 6.27554C7.66262 5.49699 8.13533 4.78959 8.73124 4.19374L9.05574 3.87016C10.2592 2.66674 11.8913 1.99066 13.5932 1.99066C15.2951 1.99066 16.9273 2.66674 18.1307 3.87016C19.3342 5.07358 20.0102 6.70576 20.0102 8.40765C20.0102 10.1095 19.3342 11.7417 18.1307 12.9452L18.1298 12.9442Z" fill="currentColor"/>
</g>
<defs>
<clipPath id="clip0_368_875">
<rect width="22" height="22" fill="white"/>
</clipPath>
</defs>
</svg>
