<svg width="22" height="22" viewBox="0 0 22 22" fill="none" xmlns="http://www.w3.org/2000/svg">
<g clip-path="url(#clip0_368_860)">
<path d="M10.9999 1.83331C16.0627 1.83331 20.1666 5.93723 20.1666 11C20.1666 16.0627 16.0627 20.1666 10.9999 20.1666C5.93717 20.1666 1.83325 16.0627 1.83325 11C1.83325 5.93723 5.93717 1.83331 10.9999 1.83331ZM10.9999 3.66665C6.95008 3.66665 3.66659 6.95015 3.66659 11C3.66659 15.0498 6.95008 18.3333 10.9999 18.3333C15.0498 18.3333 18.3333 15.0498 18.3333 11C18.3333 6.95015 15.0498 3.66665 10.9999 3.66665ZM10.9999 4.58331C11.9331 4.58331 12.8195 4.78223 13.6198 5.14065L12.187 6.57248C11.8084 6.47165 11.4106 6.41665 10.9999 6.41665C8.469 6.41665 6.41658 8.46906 6.41658 11C6.41658 12.265 6.92992 13.4108 7.75858 14.2413L6.46242 15.5375L6.31942 15.3899C5.24325 14.2422 4.58325 12.6976 4.58325 11C4.58325 7.45615 7.45609 4.58331 10.9999 4.58331ZM16.8593 8.38106C17.2168 9.1804 17.4166 10.0677 17.4166 11C17.4166 12.7719 16.6979 14.3761 15.5374 15.5375L14.2413 14.2413C15.0699 13.4108 15.5833 12.265 15.5833 11C15.5833 10.5893 15.5292 10.1915 15.4274 9.8129L16.8593 8.38106ZM14.8884 5.8144L16.1855 7.11056L12.7718 10.5261C12.8122 10.6773 12.8333 10.8359 12.8333 11C12.8333 12.0129 12.0128 12.8333 10.9999 12.8333C9.987 12.8333 9.16658 12.0129 9.16658 11C9.16658 9.98706 9.987 9.16665 10.9999 9.16665C11.164 9.16665 11.3226 9.18773 11.4738 9.22806L14.8893 5.8144H14.8884Z" fill="currentColor"/>
</g>
<defs>
<clipPath id="clip0_368_860">
<rect width="22" height="22" fill="white"/>
</clipPath>
</defs>
</svg>
