<svg width="22" height="22" viewBox="0 0 22 22" fill="none" xmlns="http://www.w3.org/2000/svg">
<g clip-path="url(#clip0_368_870)">
<path d="M11 18.3333C12.945 18.3333 14.8102 17.5607 16.1855 16.1854C17.5608 14.8102 18.3334 12.9449 18.3334 11C18.3334 9.05506 17.5608 7.1898 16.1855 5.81453C14.8102 4.43926 12.945 3.66665 11 3.66665C9.05512 3.66665 7.18986 4.43926 5.81459 5.81453C4.43932 7.1898 3.66671 9.05506 3.66671 11C3.66671 12.9449 4.43932 14.8102 5.81459 16.1854C7.18986 17.5607 9.05512 18.3333 11 18.3333ZM11 20.1666C5.93729 20.1666 1.83337 16.0627 1.83337 11C1.83337 5.93723 5.93729 1.83331 11 1.83331C16.0628 1.83331 20.1667 5.93723 20.1667 11C20.1667 16.0627 16.0628 20.1666 11 20.1666ZM11 14.6666C11.9725 14.6666 12.9051 14.2803 13.5928 13.5927C14.2804 12.9051 14.6667 11.9724 14.6667 11C14.6667 10.0275 14.2804 9.09489 13.5928 8.40725C12.9051 7.71962 11.9725 7.33331 11 7.33331C10.0276 7.33331 9.09495 7.71962 8.40732 8.40725C7.71968 9.09489 7.33337 10.0275 7.33337 11C7.33337 11.9724 7.71968 12.9051 8.40732 13.5927C9.09495 14.2803 10.0276 14.6666 11 14.6666ZM11 16.5C9.54135 16.5 8.1424 15.9205 7.11095 14.8891C6.0795 13.8576 5.50004 12.4587 5.50004 11C5.50004 9.54129 6.0795 8.14234 7.11095 7.11089C8.1424 6.07944 9.54135 5.49998 11 5.49998C12.4587 5.49998 13.8577 6.07944 14.8891 7.11089C15.9206 8.14234 16.5 9.54129 16.5 11C16.5 12.4587 15.9206 13.8576 14.8891 14.8891C13.8577 15.9205 12.4587 16.5 11 16.5ZM11 12.8333C10.5138 12.8333 10.0475 12.6402 9.70368 12.2963C9.35986 11.9525 9.16671 11.4862 9.16671 11C9.16671 10.5137 9.35986 10.0474 9.70368 9.70362C10.0475 9.3598 10.5138 9.16665 11 9.16665C11.4863 9.16665 11.9526 9.3598 12.2964 9.70362C12.6402 10.0474 12.8334 10.5137 12.8334 11C12.8334 11.4862 12.6402 11.9525 12.2964 12.2963C11.9526 12.6402 11.4863 12.8333 11 12.8333Z" fill="currentColor"/>
</g>
<defs>
<clipPath id="clip0_368_870">
<rect width="22" height="22" fill="white"/>
</clipPath>
</defs>
</svg>
