<svg width="30" height="11" viewBox="0 0 30 11" fill="none" xmlns="http://www.w3.org/2000/svg">
    <g clip-path="url(#clip0_7_2)">
    <path d="M-145 14.2537C-145 10.9397 -142.314 8.25366 -139 8.25366H2.85599C4.82499 8.25366 6.669 7.28766 7.789 5.66866L9.92499 2.58466C12.349 -0.917337 17.549 -0.848341 19.88 2.71666L21.724 5.53666C22.832 7.23166 24.721 8.25366 26.746 8.25366H35C38.314 8.25366 41 10.9397 41 14.2537V238.254C41 241.568 38.314 244.254 35 244.254H-139C-142.314 244.254 -145 241.568 -145 238.254V14.2537Z" fill="#0F9D58"/>
    <path d="M-139 11.2537C-142.314 11.2537 -145 13.9397 -145 17.2537V241.254C-145 244.568 -142.314 247.254 -139 247.254H35C38.314 247.254 41 244.568 41 241.254V17.2537C41 13.9397 38.314 11.2537 35 11.2537H26.746C24.721 11.2537 22.832 10.2317 21.724 8.53666L19.88 5.71666C17.549 2.15166 12.349 2.08266 9.92499 5.58466L7.789 8.66866C6.66901 10.2877 4.82498 11.2537 2.85599 11.2537H-139Z" fill="currentColor"/>
    </g>
    <defs>
    <clipPath id="clip0_7_2">
    <rect width="30" height="11" fill="white"/>
    </clipPath>
    </defs>
    </svg>
    